<svg width="138" height="26" viewBox="0 0 138 26" fill="none" xmlns="http://www.w3.org/2000/svg">
<g clip-path="url(#clip0_1_521)">
<path d="M38.4306 5.68297H42.4895V7.73581H31.7656V5.68297H35.8885V3.75208H38.4306V5.68297ZM37.1703 15.5407C36.4653 15.5407 35.8245 15.4594 35.269 15.2765C34.7136 15.1139 34.2436 14.87 33.8591 14.5854C33.4746 14.3009 33.1755 13.9553 32.9833 13.5691C32.791 13.183 32.6842 12.7765 32.6842 12.3496V11.6179C32.6842 11.1911 32.791 10.7643 32.9833 10.3984C33.1755 10.0122 33.4746 9.66671 33.8591 9.38216C34.2436 9.0976 34.7136 8.8537 35.269 8.6911C35.8245 8.5285 36.444 8.42687 37.1703 8.42687C37.8752 8.42687 38.4947 8.50817 39.0501 8.6911C39.6056 8.8537 40.0755 9.0976 40.4601 9.38216C40.8446 9.66671 41.1436 10.0122 41.3359 10.3984C41.5282 10.7846 41.635 11.1911 41.635 11.6179V12.3496C41.635 12.7765 41.5282 13.2033 41.3359 13.5691C41.1436 13.935 40.8446 14.3009 40.4601 14.5854C40.0755 14.87 39.6056 15.1139 39.0501 15.2765C38.4947 15.4594 37.8539 15.5407 37.1703 15.5407ZM37.3198 19.5041H46.8687V21.5773H34.7563V16.6179H37.3198V19.5041ZM37.1703 10.3171C36.8285 10.3171 36.5294 10.3578 36.2731 10.4594C36.0167 10.5407 35.8031 10.6626 35.6108 10.8049C35.4399 10.9472 35.3118 11.0895 35.2263 11.2724C35.1409 11.435 35.0981 11.5976 35.0981 11.7805V12.248C35.0981 12.4106 35.1409 12.5732 35.2263 12.7561C35.3118 12.9391 35.4399 13.0813 35.6108 13.2236C35.7817 13.3659 35.9953 13.4878 36.2731 13.5691C36.5294 13.6504 36.8285 13.7114 37.1703 13.7114C37.5121 13.7114 37.8111 13.6708 38.0675 13.5691C38.3238 13.4878 38.5375 13.3659 38.7297 13.2236C38.9006 13.0813 39.0288 12.9391 39.1142 12.7561C39.1997 12.5935 39.2424 12.4309 39.2424 12.248V11.7805C39.2424 11.6179 39.1997 11.4553 39.1142 11.2724C39.0288 11.1098 38.9006 10.9472 38.7297 10.8049C38.5588 10.6626 38.3452 10.5407 38.0675 10.4594C37.7898 10.3578 37.4907 10.3171 37.1703 10.3171ZM46.4415 9.05695H48.8981V11.1708H46.4415V16.8212H43.8994V3.91468H46.4415V9.05695ZM51.6325 15.5813H56.6526V12.8781H49.3895V10.8456H61.1173C61.2669 10.2358 61.3737 9.64638 61.4164 9.03663C61.4591 8.42687 61.5018 7.89842 61.5018 7.45126V6.5976H51.6325V4.56508H64.0439V7.32931C64.0439 7.55289 64.044 7.79679 64.0226 8.08134C64.0012 8.3659 63.9799 8.67077 63.9371 8.97565C63.8944 9.30086 63.8731 9.60573 63.809 9.93094C63.7662 10.2561 63.7022 10.561 63.6594 10.8456H66.5647V12.8781H59.1947V15.5813H64.2576V21.9431H61.7155V17.6139H51.6325V15.5813ZM72.6316 13.1626C71.8839 13.1626 71.2003 13.061 70.6235 12.8171C70.0254 12.5935 69.534 12.309 69.1068 11.9431C68.6796 11.5773 68.3805 11.1504 68.1669 10.683C67.9532 10.1952 67.8464 9.70736 67.8464 9.1789V8.48785C67.8464 7.97972 67.9532 7.47159 68.1669 6.98378C68.3805 6.49598 68.7009 6.06915 69.1068 5.70329C69.5127 5.33744 70.0254 5.05289 70.6235 4.82931C71.2217 4.60573 71.8839 4.48378 72.6316 4.48378C73.3792 4.48378 74.0628 4.60573 74.6396 4.82931C75.2378 5.05289 75.7291 5.33744 76.1563 5.70329C76.5836 6.06915 76.8826 6.49598 77.0963 6.98378C77.3099 7.47159 77.4167 7.95939 77.4167 8.48785V9.1789C77.4167 9.70736 77.3099 10.1952 77.0963 10.683C76.8826 11.1708 76.5622 11.5773 76.1563 11.9431C75.7505 12.309 75.2378 12.5935 74.6396 12.8171C74.0415 13.061 73.3792 13.1626 72.6316 13.1626ZM72.6316 6.55695C72.247 6.55695 71.9266 6.61793 71.6275 6.71955C71.3285 6.84151 71.0935 6.98378 70.8799 7.18703C70.6662 7.39029 70.5167 7.59354 70.4099 7.83744C70.3031 8.08134 70.239 8.30492 70.239 8.54882V9.11793C70.239 9.36183 70.3031 9.60573 70.4099 9.82931C70.5167 10.0732 70.6662 10.2765 70.8799 10.4797C71.0721 10.6626 71.3285 10.8252 71.6275 10.9472C71.9266 11.0691 72.2684 11.1098 72.6316 11.1098C73.0161 11.1098 73.3365 11.0488 73.6356 10.9472C73.9347 10.8252 74.1697 10.683 74.3833 10.4797C74.5755 10.2968 74.7464 10.0732 74.8532 9.82931C74.96 9.58541 75.0241 9.36183 75.0241 9.11793V8.54882C75.0241 8.30492 74.96 8.06102 74.8532 7.83744C74.7464 7.59354 74.5969 7.39029 74.3833 7.18703C74.191 7.00411 73.9347 6.84151 73.6356 6.71955C73.3365 6.61793 72.9947 6.55695 72.6316 6.55695ZM70.9012 14.687H82.8V21.7399H70.9012V14.687ZM73.4006 19.7277H80.2792V16.6992H73.4006V19.7277ZM82.8 13.874H80.2579V3.91468H82.8V13.874ZM90.5972 10.561C90.5331 10.7236 90.4049 10.8862 90.234 11.0691C90.0631 11.2521 89.7641 11.5366 89.3368 11.8822C88.8669 12.2683 88.3755 12.6545 87.8842 13.0407C87.3715 13.4269 86.8374 13.8334 86.282 14.2399L84.7653 12.4513C85.3635 12.0448 85.8975 11.6586 86.3675 11.2724C86.8588 10.9065 87.3288 10.5 87.8201 10.0935C88.226 9.72768 88.5678 9.32118 88.8241 8.8537C89.0805 8.38622 89.1873 7.83744 89.1873 7.20736V4.64638H91.7721V7.14638C91.7721 7.47159 91.7935 7.75614 91.8148 8.00004C91.8576 8.24395 91.9217 8.48785 92.0071 8.6911C92.0926 8.89435 92.2421 9.11793 92.413 9.32118C92.5839 9.52443 92.8189 9.72768 93.0752 9.93094C93.4597 10.2358 93.9083 10.561 94.4424 10.9269C94.9551 11.2927 95.4678 11.6383 95.9805 11.9635L94.5706 13.6504C94.1006 13.3456 93.652 13.0407 93.2248 12.7358C92.7975 12.4309 92.3916 12.1464 92.0071 11.8618C91.6653 11.5976 91.3449 11.374 91.0672 11.1504C90.8322 10.9065 90.6613 10.7236 90.5972 10.561ZM94.2501 22.2683C93.3956 22.2683 92.6052 22.187 91.9003 22.0244C91.1953 21.8618 90.5972 21.6179 90.0845 21.313C89.5718 21.0082 89.1873 20.6423 88.9096 20.2155C88.6319 19.7887 88.5037 19.3212 88.5037 18.813V18C88.5037 17.4919 88.6319 17.0244 88.9096 16.5976C89.1873 16.1708 89.5718 15.8049 90.0845 15.5C90.5972 15.1952 91.1953 14.9513 91.9003 14.7887C92.6052 14.6261 93.3956 14.5448 94.2501 14.5448C95.1046 14.5448 95.895 14.6261 96.6 14.7887C97.3049 14.9513 97.9031 15.1952 98.4158 15.5C98.9285 15.8049 99.313 16.1708 99.5907 16.5976C99.8684 17.0244 99.9966 17.4919 99.9966 18V18.813C99.9966 19.3212 99.8684 19.7887 99.5907 20.2155C99.313 20.6423 98.9285 21.0082 98.4158 21.313C97.9031 21.6179 97.3049 21.8618 96.6 22.0244C95.895 22.187 95.1046 22.2683 94.2501 22.2683ZM94.2501 16.496C93.7374 16.496 93.2888 16.557 92.883 16.6586C92.4771 16.7602 92.1353 16.8822 91.8576 17.0448C91.5799 17.2074 91.3662 17.3903 91.2167 17.5732C91.0672 17.7561 91.0031 17.9594 91.0031 18.1423V18.6504C91.0031 18.8334 91.0672 19.0366 91.2167 19.2196C91.3662 19.4025 91.5799 19.5854 91.8576 19.748C92.1353 19.9106 92.4771 20.0326 92.883 20.1342C93.2888 20.2358 93.7374 20.2968 94.2501 20.2968C94.7628 20.2968 95.2114 20.2358 95.6173 20.1342C96.0232 20.0326 96.365 19.9106 96.6427 19.748C96.9204 19.5854 97.134 19.4025 97.2836 19.2196C97.4331 19.0366 97.4972 18.8334 97.4972 18.6504V18.1423C97.4972 17.9594 97.4331 17.7561 97.2836 17.5732C97.134 17.3903 96.9204 17.2074 96.6427 17.0448C96.365 16.8822 96.0232 16.7602 95.6173 16.6586C95.2114 16.557 94.7628 16.496 94.2501 16.496ZM99.9325 7.97972H102.389V10.0935H99.9325V14.4635H97.3904V3.91468H99.9325V7.97972ZM103.778 4.99191H113.455V7.04476H109.973V8.22362C109.973 8.4472 109.994 8.67077 110.015 8.8537C110.058 9.03663 110.122 9.23988 110.208 9.40248C110.315 9.58541 110.443 9.74801 110.614 9.93094C110.785 10.0935 110.998 10.2765 111.276 10.4797C111.703 10.7846 112.152 11.1098 112.643 11.4147C113.134 11.7399 113.626 12.0448 114.138 12.3496L112.793 14.057C111.895 13.4878 111.062 12.9594 110.315 12.4309C109.887 12.1464 109.546 11.8822 109.289 11.6789C109.033 11.4757 108.883 11.3131 108.841 11.2114H108.819C108.776 11.3334 108.627 11.5163 108.349 11.7602C108.072 12.0041 107.708 12.309 107.238 12.6545C106.811 12.9797 106.363 13.3252 105.914 13.6504C105.465 13.9757 104.974 14.3009 104.483 14.6464L102.987 12.8781C103.628 12.4716 104.248 12.0448 104.803 11.6383C105.38 11.2114 105.871 10.8252 106.298 10.4594C106.64 10.1748 106.918 9.82931 107.11 9.46346C107.302 9.0976 107.409 8.67077 107.409 8.20329V7.02443H103.756V4.99191H103.778ZM112.643 22.2683C111.81 22.2683 111.041 22.187 110.336 22.0448C109.631 21.8822 109.011 21.6586 108.477 21.374C107.943 21.0895 107.537 20.7236 107.238 20.2968C106.939 19.87 106.79 19.4025 106.79 18.8537V18.0204C106.79 17.4919 106.939 17.0041 107.238 16.5773C107.537 16.1504 107.943 15.8049 108.477 15.5C109.011 15.2155 109.61 14.9919 110.336 14.8293C111.041 14.6667 111.81 14.6057 112.643 14.6057C113.476 14.6057 114.245 14.687 114.95 14.8293C115.655 14.9919 116.275 15.2155 116.809 15.5C117.343 15.7846 117.749 16.1504 118.048 16.5773C118.347 17.0041 118.496 17.4716 118.496 18.0204V18.8537C118.496 19.3822 118.347 19.87 118.048 20.2968C117.749 20.7236 117.343 21.0691 116.809 21.374C116.275 21.6586 115.676 21.8822 114.95 22.0448C114.245 22.2074 113.476 22.2683 112.643 22.2683ZM112.643 16.5773C112.194 16.5773 111.767 16.6179 111.383 16.6992C110.977 16.7805 110.614 16.9025 110.315 17.0448C110.015 17.187 109.759 17.37 109.567 17.5529C109.375 17.7561 109.289 17.9594 109.289 18.2033V18.6708C109.289 18.8944 109.375 19.1179 109.567 19.3212C109.759 19.5244 109.994 19.687 110.315 19.8293C110.614 19.9716 110.977 20.0935 111.383 20.1748C111.789 20.2561 112.216 20.2968 112.643 20.2968C113.07 20.2968 113.519 20.2561 113.903 20.1748C114.309 20.0935 114.672 19.9716 114.971 19.8293C115.271 19.687 115.527 19.5041 115.719 19.3212C115.911 19.1179 115.997 18.9147 115.997 18.6708V18.2033C115.997 17.9797 115.911 17.7561 115.719 17.5529C115.527 17.3496 115.292 17.187 114.971 17.0448C114.672 16.9025 114.309 16.7805 113.903 16.6992C113.498 16.6179 113.092 16.5773 112.643 16.5773ZM115.911 10.3578H112.899V8.30492H115.911V3.91468H118.454V14.5244H115.911V10.3578ZM130.566 14.5244V17.4309H137.872V19.4838H120.697V17.4309H128.002V14.5244H123.046V5.13419H125.589V8.00004H133.044V5.13419H135.586V14.5244H130.566ZM133.023 12.4919V10.0529H125.567V12.4919H133.023Z" fill="#2D3D50"/>
<path d="M5.68252 12.8373L0.363329 21.5365C-0.662058 23.2235 0.619675 25.3373 2.67045 25.3373H22.3237C24.3745 25.3373 25.6562 23.2235 24.6308 21.5365L19.2689 12.7357L12.5612 14.1788L5.68252 12.8373Z" fill="#2876CB"/>
<path d="M8.95078 3.60974V7.45121L0.427245 21.4959L0.405883 21.5366C0.320434 21.6788 0.256347 21.8008 0.213623 21.9634C0.192261 21.9837 0.192261 22.0244 0.170898 22.065V22.0854C0.170898 22.0447 0.192261 22.0244 0.213623 22.0041C0.256347 21.8618 0.341796 21.7195 0.405883 21.5772L0.427245 21.5366L0.555419 21.3333L3.11889 17.1057L5.68235 12.878L5.81053 12.6748C6.83591 11.4959 8.63034 11.1707 10.0616 11.9431L11.7065 12.8374C11.9842 12.9797 12.2406 13.1219 12.4969 13.2439C12.7533 13.1219 13.0096 12.9797 13.2873 12.8374L14.9322 11.9431C16.4062 11.1301 18.2647 11.5162 19.2901 12.7764L21.8749 17.0447L24.3957 21.191L24.6307 21.5569C24.7375 21.7195 24.8229 21.8821 24.887 22.065C24.9084 22.1057 24.9084 22.1463 24.9297 22.1667L24.9938 22.4715C24.9938 22.5122 24.9938 22.5325 25.0152 22.5732V23V22.9797V22.8171V22.6748V22.5528C25.0152 22.5122 25.0152 22.4919 24.9938 22.4512L24.9297 22.1463C24.9297 22.1057 24.9084 22.065 24.887 22.0447C24.8229 21.8618 24.7375 21.6992 24.6307 21.5366L16.0217 7.39023V3.60974H8.95078Z" fill="url(#paint0_linear_1_521)"/>
<path d="M12.4967 13.2236C12.2403 13.1016 11.984 12.9594 11.7063 12.8171L10.0614 11.9228C8.63012 11.1301 6.83569 11.4756 5.8103 12.6545L5.68213 12.8577V12.8781C5.74622 13.3049 6.45117 16.2724 12.4967 13.2236Z" fill="#1976D2"/>
<path d="M13.5865 17.0651L15.8509 16.1708C17.9017 15.3578 20.4651 15.744 21.8537 17.0041L19.2689 12.7358C18.2648 11.4757 16.4063 11.0895 14.911 11.9025L13.2661 12.7968C12.9884 12.9391 12.732 13.0814 12.4757 13.2033C6.45153 16.2521 5.74657 13.2846 5.66112 12.8374V12.8171L3.09766 17.0448V17.0854C3.20447 17.5732 4.25122 20.7846 13.5865 17.0651Z" fill="#42A5F5"/>
<path d="M13.8852 21.252L16.7691 20.3577C19.3539 19.5447 22.601 19.9309 24.3741 21.1707L21.8533 17.0244C20.4648 15.7439 17.9013 15.3577 15.8505 16.191L13.5861 17.0853C4.25084 20.8049 3.20409 17.5935 3.11864 17.1463V17.1057L0.555176 21.3333C0.683349 21.8008 2.07189 24.9512 13.8852 21.252Z" fill="#2C8DE3"/>
<path d="M24.994 22.866V22.7254V22.6049C24.994 22.5646 24.994 22.5445 24.9727 22.5043L24.9084 22.203C24.9075 22.1657 24.8923 22.13 24.8656 22.1026C24.8018 21.9259 24.7156 21.7572 24.6089 21.6004L24.3735 21.2388C22.5974 20.0132 19.3448 19.6317 16.7557 20.4352L13.8664 21.3191C2.03283 24.9754 0.641935 21.8815 0.492186 21.3793L0.363799 21.5803L0.342437 21.6205C0.256988 21.761 0.192687 21.8815 0.149749 22.0423C0.128387 22.0624 0.128387 22.1026 0.107025 22.1228C0.0856625 22.203 0.0643003 22.2632 0.0429381 22.3437V22.3837C0.0215759 22.4642 0.0215759 22.5244 0 22.6049V23.087C0 23.1673 0.0213622 23.2276 0.0427245 23.3079V23.3482C0.0640867 23.4083 0.0640867 23.4687 0.0854489 23.5289L0.149749 23.7097C0.149749 23.7299 0.171111 23.7699 0.192474 23.79C0.213836 23.8703 0.256774 23.9307 0.299498 23.9908L0.363585 24.1116C0.385161 24.1516 0.406523 24.1717 0.427885 24.212C0.47061 24.2721 0.513548 24.3124 0.556272 24.3726C0.598997 24.4128 0.620573 24.453 0.663297 24.4931L0.74896 24.5736L0.855771 24.674C0.898709 24.7142 0.941647 24.7343 0.984372 24.7744C1.09118 24.8549 1.17685 24.915 1.28387 24.9754C1.43362 25.0557 1.60494 25.136 1.77606 25.1762C1.81878 25.1963 1.8615 25.1963 1.88308 25.2165C1.98989 25.2364 2.09713 25.2766 2.20415 25.2766C2.24688 25.2766 2.26824 25.2766 2.31097 25.2967H22.4474C22.4902 25.2967 22.5329 25.2967 22.5758 25.2766C22.6185 25.2766 22.6399 25.2766 22.6828 25.2565C22.7897 25.2364 22.8967 25.2165 22.9823 25.1963C23.0251 25.1963 23.068 25.1762 23.1107 25.1561C23.1748 25.136 23.2178 25.1158 23.2818 25.0959C23.5088 25.0188 23.7191 24.903 23.9024 24.7543C23.9454 24.7142 23.9881 24.6941 24.0308 24.6538C24.0737 24.6337 24.0951 24.5937 24.1378 24.5534L24.2235 24.4732C24.2448 24.453 24.2662 24.4329 24.2662 24.4128C24.2876 24.3725 24.3305 24.3526 24.3519 24.3124C24.3946 24.2721 24.416 24.2321 24.4375 24.1919C24.4589 24.1717 24.4803 24.1315 24.5016 24.1116C24.523 24.0915 24.5443 24.0512 24.5443 24.0311C24.5659 23.991 24.6086 23.9307 24.63 23.8904C24.6514 23.8504 24.6727 23.79 24.6943 23.7498C24.7157 23.7097 24.737 23.6494 24.7584 23.6093V23.5892C24.7798 23.549 24.7798 23.5087 24.8011 23.4687V23.4486C24.8227 23.3681 24.8441 23.2878 24.8441 23.2075V23.1874V23.1071C24.8441 23.0669 24.8441 23.0266 24.8654 22.9866C24.9938 22.9665 24.994 22.9262 24.994 22.866Z" fill="#2876CB"/>
<path d="M8.28845 3.60981H16.7265C17.581 3.60981 18.286 2.93908 18.286 2.12607C18.286 1.31307 17.581 0.642334 16.7265 0.642334H8.28845C7.43396 0.642334 6.729 1.31307 6.729 2.12607C6.729 2.93908 7.43396 3.60981 8.28845 3.60981Z" fill="#C2DEEE"/>
</g>
<defs>
<linearGradient id="paint0_linear_1_521" x1="12.5612" y1="3.27519" x2="12.5612" y2="11.2612" gradientUnits="userSpaceOnUse">
<stop stop-color="#A6CFE2"/>
<stop offset="0.64" stop-color="#C2DEEE"/>
</linearGradient>
<clipPath id="clip0_1_521">
<rect width="138" height="25" fill="white" transform="translate(0 0.5)"/>
</clipPath>
</defs>
</svg>
