<svg width="16" height="17" viewBox="0 0 16 17" fill="none" xmlns="http://www.w3.org/2000/svg">
<path d="M6.55997 0.0899968C7.77782 0.0895316 8.97175 0.428088 10.0081 1.06775C11.0444 1.70742 11.8822 2.62294 12.4277 3.7118C12.9732 4.80066 13.2047 6.01987 13.0965 7.2329C12.9883 8.44593 12.5446 9.60489 11.815 10.58L16 14.764L14.675 16.09L10.489 11.906C9.65669 12.5276 8.6887 12.9426 7.66467 13.1169C6.64064 13.2913 5.58984 13.22 4.59877 12.9088C3.60769 12.5977 2.70468 12.0556 1.96403 11.3273C1.22339 10.5989 0.666303 9.70512 0.338617 8.71939C0.0109309 7.73367 -0.0779833 6.68421 0.0791922 5.6574C0.236368 4.6306 0.635139 3.65579 1.24269 2.81323C1.85023 1.97066 2.64919 1.28441 3.57379 0.810968C4.49839 0.337526 5.52121 0.0904228 6.55997 0.0899968ZM6.55997 1.965C5.31717 1.965 4.12527 2.4587 3.24647 3.33749C2.36768 4.21629 1.87397 5.40819 1.87397 6.651C1.87397 7.8938 2.36768 9.0857 3.24647 9.9645C4.12527 10.8433 5.31717 11.337 6.55997 11.337C7.80278 11.337 8.99468 10.8433 9.87348 9.9645C10.7523 9.0857 11.246 7.8938 11.246 6.651C11.246 5.40819 10.7523 4.21629 9.87348 3.33749C8.99468 2.4587 7.80278 1.965 6.55997 1.965Z" fill="#BBBBBB"/>
</svg>
