<svg width="16" height="16" viewBox="0 0 16 16" fill="none" xmlns="http://www.w3.org/2000/svg">
<path d="M6.56022 4.78724e-07C7.77806 -0.0004647 8.972 0.338091 10.0083 0.977758C11.0447 1.61743 11.8825 2.53295 12.4279 3.62181C12.9734 4.71067 13.205 5.92987 13.0968 7.1429C12.9886 8.35593 12.5448 9.51489 11.8152 10.49L16.0002 14.674L14.6752 16L10.4892 11.816C9.65694 12.4376 8.68895 12.8526 7.66492 13.0269C6.64088 13.2013 5.59009 13.13 4.59901 12.8188C3.60794 12.5077 2.70492 11.9656 1.96428 11.2373C1.22364 10.5089 0.666547 9.61512 0.338861 8.6294C0.011175 7.64367 -0.0777392 6.59421 0.0794364 5.56741C0.236612 4.5406 0.635384 3.5658 1.24293 2.72323C1.85048 1.88066 2.64943 1.19441 3.57403 0.720972C4.49863 0.247529 5.52145 0.000426444 6.56022 4.78724e-07ZM6.56022 1.875C5.31741 1.875 4.12551 2.3687 3.24671 3.2475C2.36792 4.12629 1.87422 5.3182 1.87422 6.561C1.87422 7.8038 2.36792 8.99571 3.24671 9.8745C4.12551 10.7533 5.31741 11.247 6.56022 11.247C7.80302 11.247 8.99493 10.7533 9.87372 9.8745C10.7525 8.99571 11.2462 7.8038 11.2462 6.561C11.2462 5.3182 10.7525 4.12629 9.87372 3.2475C8.99493 2.3687 7.80302 1.875 6.56022 1.875Z" fill="#BBBBBB"/>
</svg>
