<svg width="21" height="22" viewBox="0 0 21 22" fill="none" xmlns="http://www.w3.org/2000/svg">
<g clip-path="url(#clip0_2074_549)">
<path d="M8.60906 0.244996C10.2075 0.244385 11.7745 0.68874 13.1347 1.5283C14.4949 2.36787 15.5945 3.56949 16.3104 4.99862C17.0264 6.42774 17.3303 8.02795 17.1883 9.62005C17.0463 11.2122 16.4638 12.7333 15.5063 14.0131L20.9991 19.5046L19.26 21.245L13.7659 15.7535C12.6735 16.5693 11.403 17.114 10.059 17.3429C8.71494 17.5717 7.33577 17.4781 6.03498 17.0697C4.7342 16.6613 3.54899 15.9499 2.57689 14.9939C1.6048 14.038 0.873622 12.8648 0.443534 11.5711C0.0134465 10.2773 -0.103253 8.8999 0.10304 7.55222C0.309332 6.20453 0.83272 4.92511 1.63013 3.81923C2.42753 2.71336 3.47616 1.81266 4.6897 1.19127C5.90324 0.569877 7.24568 0.245555 8.60906 0.244996ZM8.60906 2.70593C6.97788 2.70593 5.41351 3.35392 4.26009 4.50734C3.10667 5.66076 2.45869 7.22513 2.45869 8.85631C2.45869 10.4875 3.10667 12.0519 4.26009 13.2053C5.41351 14.3587 6.97788 15.0067 8.60906 15.0067C10.2402 15.0067 11.8046 14.3587 12.958 13.2053C14.1115 12.0519 14.7594 10.4875 14.7594 8.85631C14.7594 7.22513 14.1115 5.66076 12.958 4.50734C11.8046 3.35392 10.2402 2.70593 8.60906 2.70593Z" fill="white"/>
</g>
<defs>
<clipPath id="clip0_2074_549">
<rect width="21" height="21" fill="white" transform="translate(0 0.244995)"/>
</clipPath>
</defs>
</svg>
