<svg width="72" height="72" viewBox="0 0 72 72" fill="none" xmlns="http://www.w3.org/2000/svg">
<path fill-rule="evenodd" clip-rule="evenodd" d="M63.1049 65.743L40.4199 43.06L43.2489 40.231L65.9319 62.915L63.1049 65.743Z" fill="#A7AFB7"/>
<path fill-rule="evenodd" clip-rule="evenodd" d="M45.704 52.388C45.3291 52.0129 45.1184 51.5043 45.1184 50.974C45.1184 50.4437 45.3291 49.9351 45.704 49.56L49.75 45.514C50.1251 45.1391 50.6337 44.9284 51.164 44.9284C51.6943 44.9284 52.2029 45.1391 52.578 45.514L66.058 58.994C66.5094 59.4454 66.8674 59.9812 67.1117 60.5709C67.3559 61.1606 67.4817 61.7927 67.4817 62.431C67.4817 63.0693 67.3559 63.7014 67.1117 64.2911C66.8674 64.8808 66.5094 65.4166 66.058 65.868C65.6066 66.3194 65.0708 66.6774 64.4811 66.9217C63.8914 67.1659 63.2593 67.2916 62.621 67.2916C61.9827 67.2916 61.3506 67.1659 60.7609 66.9217C60.1712 66.6774 59.6354 66.3194 59.184 65.868L45.704 52.388ZM5 27.063C5 14.326 15.326 4 28.063 4C40.801 4 51.127 14.326 51.127 27.063C51.127 39.801 40.801 50.127 28.063 50.127C15.326 50.127 5 39.8 5 27.063ZM47.127 27.063C47.127 16.535 38.592 8 28.063 8C17.535 8 9 16.535 9 27.063C9 37.592 17.535 46.127 28.063 46.127C38.592 46.127 47.127 37.592 47.127 27.063Z" fill="#C2C8CE"/>
<path d="M25.259 31.957V32.279H29.374V31.957C29.399 29.317 30.256 28.103 32.295 26.877C34.57 25.512 36 23.653 36 20.803C36 16.64 32.73 14 27.994 14C23.655 14 20.124 16.404 20 21.101H24.4C24.525 18.771 26.204 17.656 27.969 17.656C29.883 17.656 31.413 18.908 31.413 20.878C31.413 22.625 30.269 23.803 28.753 24.744C26.552 26.12 25.283 27.484 25.259 31.957ZM24.699 37.286C24.674 38.786 25.918 40 27.422 40C28.889 40 30.132 38.785 30.145 37.286C30.132 35.799 28.889 34.596 27.422 34.596C25.918 34.596 24.674 35.799 24.699 37.286Z" fill="#A7AFB7"/>
</svg>
